<?xml version="1.0" encoding="utf-8"?>
<!-- Generator: Adobe Illustrator 22.1.0, SVG Export Plug-In . SVG Version: 6.00 Build 0)  -->
<svg version="1.1" id="Layer_1" xmlns="http://www.w3.org/2000/svg" xmlns:xlink="http://www.w3.org/1999/xlink" x="0px" y="0px"
	 viewBox="0 0 154 152" style="enable-background:new 0 0 154 152;" xml:space="preserve">
<style type="text/css">
	.st0{fill:#FEFEFE;}
	.st1{fill:#502C1E;}
	.st2{fill:#41CE6A;}
	.st3{fill:#C85031;}
	.st4{fill:#999999;}
	.st5{fill:#67ACE4;}
	.st6{fill:#653B2A;}
	.st7{fill:#663D2C;}
	.st8{fill:#5B3224;}
	.st9{fill:#673F2F;}
	.st10{fill:#5A3424;}
	.st11{fill:#5E3928;}
	.st12{fill:#542F1F;}
	.st13{fill:#583326;}
	.st14{fill:#533020;}
	.st15{fill:#512E20;}
	.st16{fill:#593425;}
	.st17{fill:#4F332A;}
	.st18{fill:#562F21;}
	.st19{fill:#4E2C1D;}
	.st20{fill:#673D2C;}
	.st21{fill:#331B12;}
	.st22{fill:#323335;}
	.st23{fill:#FBFBFC;}
	.st24{fill:#E8D2CC;}
	.st25{fill:#D6806D;}
	.st26{fill:#B86C36;}
	.st27{fill:#613727;}
	.st28{fill:#FBFDFC;}
	.st29{fill:#B76C36;}
	.st30{fill:#623727;}
	.st31{fill:#D4F0DC;}
	.st32{fill:#B96C36;}
	.st33{fill:#FCF8F7;}
	.st34{fill:#F4F8FC;}
	.st35{fill:#92C1EB;}
	.st36{fill:#4E2A1C;}
	.st37{fill:#F4F8FB;}
	.st38{fill:#B36935;}
	.st39{fill:#AB6433;}
	.st40{fill:#AC6433;}
	.st41{fill:#A86233;}
	.st42{fill:#B56A35;}
	.st43{fill:#623826;}
	.st44{fill:#B46935;}
	.st45{fill:#91542F;}
	.st46{fill:#15110F;}
	.st47{fill:#915127;}
	.st48{fill:#9BA3AE;}
</style>
<g>
	<g>
		<path class="st0" d="M87.6,6.2c20,0,40.1,0.1,60.1-0.1c2.5,0,3.1,0.6,3.1,3.1c-0.1,41.1-0.1,82.1,0,123.2c0,2.5-0.6,3.1-3.1,3.1
			c-46.4-0.1-92.8-0.1-139.3,0c-2.5,0-3.1-0.6-3.1-3.1c0.1-41.1,0.1-82.1,0-123.2c0-2.5,0.6-3.1,3.1-3.1c23.4,0.1,46.8,0.1,70.1,0.1
			c-0.3,2.7-2.6,2-4.2,2.4c-5.5,1.2-11.3,0.9-16.7,2.7c-1.9,0.7-3.8,1.3-5,3c-1.6,2.3-2.6,4.9-0.7,7.4c2,2.6,4.5,1.1,6.8,0.3
			c0.6-0.2,1.1-0.7,1.7-1c1.4-0.9,3-2.1,4.6-0.9c1.7,1.4,0.3,3.1-0.3,4.6c-1.1,2.6-1.2,5.6-2.9,7.9c-4.2,3.4-8.6,1.8-12.7-0.1
			c-3.5-1.7-7-2.1-10.6-1.8c-1.2,0.1-3-0.5-3.2,1.5c-0.2,1.9,1.6,2.5,3.1,2.5c8.1,0.3,14.9,4.9,22.5,6.7c0.5,1.1,0.5,2.1-0.1,3.1
			c-4.5,3.3-9.9,2.4-14.9,3.1c-6.3,1-12.5,2.1-18.6,3.6c-1.6,0.4-3.8,0.8-3.6,2.8c0.2,2,2.5,1.6,4.1,1.9c10.4,1.7,20.9-0.3,31.3-0.3
			c1.8,0,3.6-0.4,5.3,0.6c2.9,1.8,4.6,4.3,4.5,7.9c-1,2-3.2,2.1-4.7,3.3c-2.7,2.1-2.5,3.9,0.7,5.3c1.5,0.6,3.3,0.5,4.2,2.2
			c0.3,1.1,0.2,2.1-0.8,2.8c-12.1-0.5-24.3-1.3-36.4-0.9c-2,0.1-4-0.1-6,0.3c-1.4,0.3-3.4,0.4-3.5,2.2c-0.1,1.5,1.8,1.9,3,2.2
			c8.2,2.3,16.7,3.4,25.1,4.6c4.5,0.6,9.4-0.3,13.4,2.7c0.6,4-0.3,8.1,0.3,12.1c-3.9,6.2-3.7,12,1.6,17.5c2,2,1.1,3.6-1.1,4.7
			c-2.2,1.1-4.5,2.1-6.9,2.6c-3.5,0.6-7.2,0.6-10.4,2.8c23.2,4.8,46.5,4.5,69.8,0.2c-2.5-2.1-5.6-2.3-8.6-2.8
			c-9.4-1.4-18.9-1-28.4-1c-2.3,0-4.7,0.2-6.9-0.6c-0.8-0.4-1.5-1.1-1.2-1.9c0.8-2.4,0.5-4.6-0.7-6.9c-0.8-1.6-0.1-3.5,1.6-4.7
			c2.3-0.9,4.6-0.8,6.9-0.2c7.1,4.7,14.4,7.8,22.1,3.5c-5.2,0.1-12,3.5-15.8-4.4c0.3-3.2,2.5-5.5,4.4-7.8c2.3-1.6,4.8-1.8,7.5-1.3
			c2.7,1,5,0.6,7-1.7c1-1.1,2.2-2,3.6-2.3c1.4-0.3,2.8-0.3,4.2-0.4c3-1,1.6-2.2,0.1-3.3c-2.4-1.7-4.8-0.5-7,0.4
			c-3.6,1.5-7,2-10.2-0.8c-0.9-1-2.8-1.2-2.3-3.2c2.1-1.6,4.9-1.2,7.1-2.4c1.4-0.9,0.7-1.5-0.2-2.2c-2.1-1.3-4.5-1.9-6.8-2.7
			c-1.7-0.5-3.5-1-4-3.1c-0.4-1.9-0.5-3.9,0.7-5.6c2.7-1.9,6-1.9,9.1-2.3c10.9-1.4,21.7-3.4,32.2-6.7c2.8-0.9,7.6-1.2,7-4.8
			c-0.6-3.3-5.3-2.6-8.3-2.7c-10.8-0.4-21.5,1.2-32.2,2.6c-2.6,0.3-5.2,1.2-7.9,0.6c-2.2-1.1-3.1-2.9-3.2-5.3c0.7-3.2,3.6-3.3,6-4.3
			c1.2-0.5,2.8-0.6,2.7-2.3c-0.1-1.3-1.6-1.4-2.7-1.8c-1.7-0.5-3.5-0.8-5.2-1.4c-1.1-0.6-2.2-1.1-2.3-2.6c3.7-3.4,7.5-4,11.7-1.9
			c2.8,1.4,2.8,1.4,6.1,0.1c-1.4-2.1-3.6-2.8-5.5-4c-1.5-1-3.1-0.9-4.8-0.5c-2.4,0.6-4.9,0.6-7.4,0.4c-1.9-0.2-3.7-0.7-4.3-2.8
			c-0.7-2.3,0.8-3.8,2.5-4.9c3.4-2.3,7.2-3.2,11.3-2.9c3.3,0.3,6.6-0.2,9.7-1.2c2-0.7,3.5-1.8,3.9-4c0.3-1.4,1.7-2.2,1.8-3.7
			c-1.7-0.9-3.5-0.3-5.2-0.4C96.4,17.8,92.5,11.3,87.6,6.2z"/>
		<path class="st1" d="M61.5,32.1c0.5-4.1,1.9-7.9,3.9-11.8c-2.5-0.5-3.6,1.6-5.3,2.4c-3.1,1.5-6.4,3.8-9.3,0
			c-2.7-3.5-1-9.4,3.2-11.6c3.7-1.9,7.8-2.5,12-3c4.2-0.5,8.6,0,12.6-2c3,0,6,0,9,0c3,2,6.3,3.3,8.3,6.9c1.8,3.1,6.4,1.7,9.7,2.5
			c0.4,0.4,0.6,0.9,0.6,1.4c0,0.8-0.4,1.5-1.1,1.9c-5.8,0.3-11.3-0.4-14.9-5.9c-1.2-1.9-3.1-2.4-5.2-2.4c-8.5,0.3-16.9,1.1-25.3,2.8
			c-1,0.2-1.9,0.6-2.8,1c-1.9,1-3.8,2.4-2.4,4.7c1.2,1.9,3,0.3,4.4-0.5c2.9-1.7,5.7-3.5,8.6-5.1c1.5-0.8,3.1-1.5,4.6,0.1
			c1.3,1.4,0.6,2.9-0.2,4.2c-3,5-4.5,10.8-7.4,15.8c-0.7,0.9-1.5,1.4-2.7,1.3C59.7,34.2,60.4,33.2,61.5,32.1z"/>
		<path class="st2" d="M89.8,59.4c13.3-2.4,26.6-4.1,40.1-4.1c2.7,0,5.3,0.4,7.9,1c1.8,0.4,3.4,1,3.6,2.9c0.2,2.1-1.2,3.1-3,4
			c-7.9,3.9-16.4,5.3-24.8,7c-7.5,1.5-15.1,2.3-22.7,3.4c-0.7,0.4-1.4,0.9-2.2,1.1c-3.2,1.1-6.6,1.1-10,1.1c-2.2,0-4.5,0.1-6.7-0.1
			c-1.2-0.1-2.3-0.3-3.1-1.2c-0.8-0.1-1.6-0.2-2.4-0.4c-2.4-0.6-5.8-0.2-5.9-3.8C60.4,67,63.1,65.7,66,65c0.8-0.2,1.5-0.5,2.3-0.8
			c1.6,0.8,1.8,2.3,1.7,3.8c-0.4,1.5-2.4,0.9-3.1,2.5c0.9-1.2,2.1-1,3.2-1.2c0.7-0.2,1.5-0.2,2.2-0.3c2.4,0,4.7-0.1,7.1,0
			c2.8,0.1,5.5-0.3,8.2-1c2,0,1.8-2.7,3.7-2.9c1.9,1.8,4.1,2.3,6.8,2c10.6-1.3,21-3.7,31.4-6.3c-11.1-0.2-22.1,1-33,3
			c-2,0.3-3.9,1-5.9,0C89.4,62.5,88.4,61.1,89.8,59.4z"/>
		<path class="st3" d="M101.6,87.2c-2.1,2.3-5.1,1.8-7.8,2.3c-1.1,1.1-2.6,1-4,1.1c-0.8,0-1.7,0-2.5,0c-4.4-0.1-8.8,0.1-13.2,0.5
			c-2.2-0.3-4.4-0.5-6.6-0.5c-1.5,0-2.8-0.4-3.9-1.4C54.7,88,45.8,86.9,37,85.5c-5.1-0.8-10.3-1.3-14.9-3.8
			c-1.2-0.7-3.1-0.9-2.8-2.9c0.2-2,2.1-1.9,3.3-2.6c0.7-0.4,1.6-0.6,2.4-0.7c14.5-0.8,28.9-0.7,43.3,1.8c1.3,2.4,0.4,3.9-2,4.7
			c-11.9-1.3-23.9-0.8-33.4-1.9c9,0.4,20.2,2.5,31.6,3.2c4.3,1.4,8.7,0.2,13,0.7c2.7-0.1,5.4,0,8.1,0c1.4,0,2.6-0.1,3-1.9
			c0.2-0.9,0-2.6,1.9-2.3c3.6,2,8.5,0.8,11.4,4.5C102.4,85.3,102.5,86.3,101.6,87.2z"/>
		<path class="st4" d="M72.7,123.3c13.8,0,27.6-0.6,41.3,1.9c2.6,0.5,5.1,1.2,7.7,2.9c-4.1,3.3-9,3.4-13.6,3.9
			c-20.2,2-40.5,2.3-60.6-1.5c-1.6-0.3-3.8-0.3-3.7-2.4c0.1-1.7,2.1-2.1,3.5-2.2c3.8-0.5,7.4-1.9,11.3-1.4c1,5,5.4,6.5,9.5,3.1
			C69.7,126.3,70.4,124,72.7,123.3z"/>
		<path class="st5" d="M87.6,44.1c2.4,0.4,4.9,0.8,7.3,1.4c1.3,0.3,2.6,0.9,2.7,2.5c0.1,1.8-1,2.8-2.5,3.3c-2.7,0.9-5.5,1.1-7.9,2.8
			c-1,0.8-2.1,1.1-3.3,1.3c-1.9,0.3-3.9,0.3-5.8,0.9c-3.3,0.4-6.6,0.7-9.9,1.3c-1.3,0-2.6-0.3-3.9-0.5c-6.6,0.2-13.3-0.1-19.8,0.6
			c-6,0.7-11.9-0.2-17.9-0.4c-2.4-0.1-5.5-0.5-5.8-2.9c-0.3-2.7,2.7-3.8,5.1-4.5c8.8-2.4,17.9-3.5,26.9-4.7c2.5-0.3,4.9-0.6,7.4-1
			c1.4,1.2,1.3,2.6,0.6,4c-1.6,1.7-3.7,2-5.9,2.2c-7.1,0.7-14,2-21,2.6c5.9-0.7,11.7,0.4,17.4-0.9c3.2-0.6,6.6-0.1,9.7-1.5
			c1.3-0.3,2.6,0,3.9,0c3.6,0.2,7.1-1.1,10.7-1c2.2-0.1,4.3-1,6.5-1.1c0.5,0,0.9,0,1.4,0c0.9,0,1.9,0.1,2.8,0
			c-1.2,0-2.4,0.1-3.6-0.1c-1.9-1.2-2.6-2.7-1.2-4.8C83.7,42.5,85.6,43.7,87.6,44.1z"/>
		<path class="st6" d="M72.7,123.3c-2.2,4.1-4.5,7.7-10.2,7.3c-5.1-0.4-5.7-1.1-3.9-6.1c2.3-1.8,5.7-1.6,8-4.3
			c-4-2.7-6.5-6.3-6.6-11.2c0-3.1,0.7-5.9,3.3-7.9c0.7,0.4,1,1.1,1.1,1.9c-1.3,5.5-0.7,10.3,4.2,13.9c0.6,1,1.6,1.9,1.3,3.3
			c-0.4,1.4-1.1,2.6-1.8,3.8c-0.7,1.7-2.1,2.4-3.8,2.6c1.6,0.1,2.9-0.5,3.7-2c0.6-1.2,1.4-2.4,1.9-3.7c0.7-1.6-0.4-2.8-1-4.1
			c-0.6-2.2-0.9-4.4,1.5-5.8c0.9-0.2,1.7-0.1,2.3,0.6c-0.4,2.3-1.7,4.9,1.7,6.2c1.6,0.6,0.9,1.1-0.1,1.9
			C73.2,120.4,72.7,121.8,72.7,123.3z"/>
		<path class="st7" d="M61.5,32.1c0,0.8-1,1.6,0.2,2.3c-1.6,3.4-4.7,2-7.2,2.1c-1.8,0.1-3.4-0.8-5.1-1.4c-3-0.7-5.4-3.9-9-2.5
			c-1,0.2-2.1,0-3.1,0.1c1.5,0,2.9,0.2,4.3-0.4c2.2-0.5,3.8,1.2,5.6,1.9c3,1.3,6,2.3,9.3,2.7c1.8,0.2,3.6,0.5,4.5,2.3
			c0.2,0.8,0.1,1.6-0.6,2.2c-6-0.7-11.8-1.9-16.8-5.4c-1.9-1.4-3.9,0.2-5.8-0.2c-2-0.4-4.1-0.5-4.3-3.2c-0.2-2.9,1.9-3.1,4-3.2
			c4.3-0.3,8.5-0.3,12.5,2C53.5,33.5,57.5,33.9,61.5,32.1z"/>
		<path class="st8" d="M87.6,89.4c0.6,0,1.3,0,1.9,0.1c2.1,1.6,4.9,0.6,7,2c2.7,2.5,5.4,2,8.4,0.6c3.3-1.6,6.9-3.1,10.2,0.3
			c0.8,0.8,2.1,1.3,1.7,2.7c-0.5,1.5-1.4,2.6-3.2,2.1c-1.7-0.5-3.3-0.5-5,0c-1.7,1.7-3.3,3.6-5.3,4.9c-1.4,1-3.4,0.9-4.8-0.6
			c-0.5-1.3,0.5-1.6,1.3-2.1c3.1-0.7,4.6-3.8,7.4-4.9c0.4-0.1,0.9-0.2,1.3-0.3c1.1-0.1,2.1-0.1,3.2,0c0.7,0,1.1-0.1,0.4-0.1
			c-0.1,0-0.2-0.1-0.3-0.2c-2.1-0.5-3.9-0.1-5.7,0.9c-3.1,2.5-6.3,3.4-9.9,1c-1.8-1.2-4.1-0.9-6.2-1.3C87.2,94,85.7,92.5,87.6,89.4z
			"/>
		<path class="st9" d="M86.6,109.4c2.4,3.1,5.6,4.6,9.6,4.1c3.3-0.4,6.6-1.1,10.4-1.7c-6.3,7.8-21.4,6.5-25.9-0.4
			C82.2,109.5,84.1,108.6,86.6,109.4z"/>
		<path class="st10" d="M95.6,27.1c-4.3,0-8.5,0.5-12.1,3.3c-1,0.8-2.4,1.4-1.8,3.1c0.5,1.5,1.7,1.6,3.1,1.7
			c2.6,0.1,5.2,0.1,7.8-0.5c2.2-0.6,4.6-1.2,6.1,1.5c0.2,0.3,0.3,0.5,0.3,0.8c0,0.3-0.1,0.4-0.2,0.4c-0.4,0.3-0.8,0.4-1.3,0.4
			c-1.7-0.3-3.3,0.1-5,0.6c-2.9,0.4-5.8,0.4-8.7,0c-3-0.8-5.2-2.6-5-5.8c0.3-4,2.8-6.5,6.7-7.6c2.9-0.7,5.9,0.3,8.9-0.3
			c0.5,0,1,0.1,1.4,0.4C96.2,25.8,96.2,26.5,95.6,27.1z"/>
		<path class="st11" d="M98.6,37.3c0-0.4,0.1-0.8,0.1-1.3c1.5-0.3,2.6,0.8,3.4,1.7c1,1.1,4.7,0.7,3,3.4c-1.4,2.2-5,3.8-6.8,1.9
			c-4.4-4.6-8.4-1.5-12.7-0.6c-1.2,1.5-4.1-0.1-4.7,2.5c-0.3,0.5-0.8,0.6-1.3,0.3c-2.1-3.5-0.3-5.3,2.9-6.1c1.7-0.5,3.6-0.6,5.4-0.9
			c1.8,0.1,3.6-0.7,5.4-0.5c0.9-0.2,1.9-0.5,2.9-0.3C96.9,36.3,98.1,41.4,98.6,37.3z"/>
		<path class="st12" d="M86.6,109.4c-2,0.7-4,1.3-6,2c-2.7,0-5.3,0-8,0.1c-0.7,0-1.4,0-2.1,0c-1-2.8,1.2-3.8,3-3.8
			c6.4,0,11.4-2.3,15.3-7.3c0.3-0.3,0.9-0.3,1.4-0.4c2.4,0.5,1.4,1.7,0.5,2.8C90.5,105.6,87.3,106.8,86.6,109.4z"/>
		<path class="st13" d="M63.6,103.6c-0.1-0.8-0.2-1.7-0.2-2.5c-1-3.9-1-7.8,0.1-11.7c1.3,0,2.7,0,4,0c0.9,4,0.1,8.1,0.7,12.1
			C67.4,103.7,66.1,104.8,63.6,103.6z"/>
		<path class="st14" d="M84.4,54.2c0.9-0.6,1.8-0.5,2.8-0.1c0.9,1.8,1.7,3.5,2.6,5.3c0.3,1.4,0.7,2.7,1,4c0.6,0.8,0.7,1.7,0.1,2.5
			c-0.5,1.3,0.6,3.6-2.2,3.3C86.6,64.4,84.9,59.5,84.4,54.2z"/>
		<path class="st15" d="M60.4,41.5c0-0.7,0.1-1.5,0.1-2.2c0.5-0.3,1.1-0.4,1.6-0.2c4.2,3.8,3.2,8.4,2.4,13.1
			c-1.1,0.5-1.9-0.1-2.6-0.7c-1.6-0.7-1.4-2-1.2-3.3c-0.1-1.3-0.2-2.6-0.4-3.9C60.4,43.4,60.4,42.4,60.4,41.5z"/>
		<path class="st16" d="M95.6,27.1c0-0.6,0-1.2,0-1.8c3.7-2.5,8.9-1.8,12-5.5c0.8-0.2,1.5-0.2,2.1,0.5c0.4,4.3-3.1,5.1-5.9,6
			C101.3,27.1,98.4,27.6,95.6,27.1z"/>
		<path class="st17" d="M64.4,57c0.9-1,2.1-0.7,3.2-0.6c3.8,3.9,5.9,8.3,4,13.8c-0.7,0-1.4,0-2.1,0c-0.5-0.6-0.6-1.2-0.3-1.9
			c-0.3-1.4-0.6-2.7-0.9-4.1C67.4,61.6,66.5,59,64.4,57z"/>
		<path class="st18" d="M66.7,81.2c1.1-1.1,1.2-2.6,1.6-4c0.2-0.9,0.4-1.8,0.6-2.7c0.9,0,1.8,0,2.8,0.1c1.9,3.5-0.1,6.3-1.8,9
			c-0.9,1.4-2.5,2.2-3.8,0C65.8,82.6,65.9,81.8,66.7,81.2z"/>
		<path class="st19" d="M90.3,79.7c-1.8,1.4,1.5,6-3.4,5.5c-1.2-4.1-0.8-8,1.7-11.6c0.7-0.1,1.5-0.1,2.2-0.2
			C90.7,75.6,90.5,77.7,90.3,79.7z"/>
		<path class="st20" d="M90.7,102.6c-0.1-0.7,0.9-1.5-0.1-2.2c3.3-4.2,7.5-4.2,10,0c-0.9,0-1.7,0.3-2.1,1.2
			C95.7,100.6,93.2,101.6,90.7,102.6z"/>
		<path class="st21" d="M109.8,20.3c-0.7,0-1.4,0-2.1,0c-0.6,0.5-1.1,0.1-1.5-0.3c-0.3-0.5-0.5-1.1-0.5-1.7c0-0.6,0.1-1.2,0.1-1.8
			c2.2,0.1,4.4-0.7,6.7-0.1C113.6,19,109.6,18.2,109.8,20.3z"/>
		<path class="st22" d="M112.4,16.3c-2.2,0.4-4.4,2.6-6.7,0.1c-0.1-0.3-0.1-0.5-0.1-0.8C108,15.5,110.4,14.3,112.4,16.3z"/>
		<path class="st23" d="M80.6,44.2c0.8-3.2,3.2-1.4,5-1.7c0.6,0.6,1.3,1.1,1.9,1.7c-2,0.1-3.9,0.2-5.9,0.4
			C81.2,44.8,80.8,44.7,80.6,44.2z"/>
		<path class="st24" d="M96.5,91.5c-2.2-1.2-5.4,1.3-7-2.1c1.4,0,2.8,0.1,4.3,0.1C94.5,90.6,96.2,90,96.5,91.5z"/>
		<path class="st25" d="M101.6,87.2c0-1,0.1-2,0.1-3c0.8,0.2,1.7,0.2,1.8,1.3C103.6,87,102.5,87,101.6,87.2z"/>
		<path class="st20" d="M108.6,97.2c1.6-1.3,3.3-1.3,5,0C112,97.2,110.3,97.2,108.6,97.2z"/>
		<path class="st26" d="M106.6,19.3c0.4,0.3,0.7,0.6,1.1,0.9c-2.3,5.8-7.7,4-12,5.1c-0.3,0-0.7,0-1,0c-3.9,1.6-7-1.5-10.6-1.7
			c1.8,0,2.9,0.5,2.4,2.6c-3.7,0.1-5.6,2.6-6.4,5.7c-0.8,2.9,1.3,4.5,3.7,5.5c1.4,1.3,4-1,4.9,1.7c-1.8,0.4-3.5,0.9-5.3,1.1
			c-3.6,0.4-4.7,2-2.7,5.2c1.2,1.1,1.6,2.6,2.1,4c-1.8,1.5-4,1.3-6.1,1.6c-0.3-0.2-0.7-0.4-0.7-0.6c-1.8-7.5-7.4-10-14.3-11
			c-0.3,0-0.7,0-1-0.1c-4.7-1.2-9.5-1.9-14-4.1c0-1.7,1-1.5,2.1-1c4.3,0.8,8.7,2.3,13,0.2c0.7-0.3,1.3-0.6,2-0.9
			c5.2-3.8,10.7-7.2,14.9-12.3c2.4-2.9,6-3.7,9.5-3.1C94.2,19,100.4,19.5,106.6,19.3z"/>
		<path class="st27" d="M106.6,19.3c-5.2,1.9-10.3,1.8-15.6,0.4c-5.8-1.6-10.5,0.1-14.4,5.2c-3.2,4.1-7.4,7.6-13,8.6
			c2-5.5,4.1-11.1,7.2-16.2c0.6-1,2-2.2,0.5-3.5c-1.3-1.1-2.5,0.2-3.6,0.8c-3.1,1.9-6,4.1-9.3,5.8c-1.6,0.8-4.1,3.1-5.5,0.2
			c-1.3-2.7-0.9-5.7,2.3-7.2c4.3-2,9-2.3,13.5-3c4.4-0.7,8.9-1,13.3-1.2c4.1-0.2,7.6-0.1,10.3,4.7c2.4,4.2,8.4,3.8,13.2,4.3
			C106,18.6,106.3,18.9,106.6,19.3z"/>
		<path class="st28" d="M90.9,65.9c0-0.8-0.1-1.7-0.1-2.5c14.2-2.9,28.5-4.5,44.2-4c-4.3,3.4-8.5,3.8-12.4,4.6
			c-9.1,2-18.4,3.2-27.5,5C92.2,69.6,91.3,68.3,90.9,65.9z"/>
		<path class="st27" d="M71.6,70.2c0-5-2.2-9.3-4-13.8c3.6-0.8,7.3-1.3,11-1.2c4.1,4.7,3,9.8,1,14.9C76.9,70.1,74.3,70.2,71.6,70.2z
			"/>
		<path class="st29" d="M79.6,70.1c-0.3-5,0.9-10.1-1-14.9c1.8-1.2,3.9-0.9,5.8-1c2.6,4.7,4.3,9.6,4.3,15.1
			C85.7,69.8,82.7,70.6,79.6,70.1z"/>
		<path class="st29" d="M88.6,73.7c-0.6,3.9-1.2,7.7-1.7,11.6c-3.2,0-6.3,0-9.5,0c-1.5-3.9-0.8-7.4,1.4-10.8
			C82,74.2,85.3,74,88.6,73.7z"/>
		<path class="st30" d="M78.8,74.5c-0.5,3.6-0.9,7.2-1.4,10.8c-4.2-0.1-8.5,0.6-12.7-0.6c0-1.1,0.7-1.5,1.7-1.6
			c1.7,2.1,2.6,0.7,3.1-0.9c0.8-2.5,2.1-4.9,2.1-7.6C74,74.5,76.4,74.5,78.8,74.5z"/>
		<path class="st31" d="M69.2,68.3c0.1,0.6,0.2,1.3,0.3,1.9c-1.1,0-2.2,0-3.3,0C66.7,68.6,68,68.5,69.2,68.3z"/>
		<path class="st32" d="M100.6,100.4c-3.3-3.3-6.7-1.7-10,0c-0.9,0.6-2.3,1.1-2.7,2c-2.3,5-6.5,6.1-11.4,6.2c-2.4,0-5.2-0.6-5.9,2.9
			c-1.7,1.8-0.7,4-0.8,6c-0.4,0.5-0.8,0.5-1.3,0.1c-6.4-4.6-7.1-6.4-4.8-13.9c1.6-0.3,3.2-0.4,4.1-2.1c2.1-3.7,2.6-8.2,6.1-11.2
			c4.5-1.7,9.2-0.8,13.9-0.9c0,1.3-0.3,3.8,0.8,3.5c6.1-1.6,11.7,6.7,17.8,0.7c0.1-0.1,0.3-0.1,0.5-0.1c0.8,0.3,1.4,0.7,0.9,1.7
			C105,96.6,104,100.1,100.6,100.4z"/>
		<path class="st33" d="M66.4,83c-0.6,0.5-1.1,1.1-1.7,1.6c-11.6-0.7-23-2.1-34.3-5c12.2-0.5,24.3-1,36.4,1.6
			C66.6,81.8,66.5,82.4,66.4,83z"/>
		<path class="st27" d="M73.8,90.3c-1.9,3.8-2.1,8.5-6.1,11.2c-1.7-4.1-1.7-8.1-0.1-12.2C69.7,89.5,71.9,88.6,73.8,90.3z"/>
		<path class="st27" d="M61.6,39.3c11.9,0.3,11.9,0.1,15,11.6c-4,0.3-7.9,1.6-12,1.2C62.6,48.1,65.3,43,61.6,39.3z"/>
		<path class="st34" d="M60.7,48.2c0.4,1.1,0.8,2.2,1.2,3.3c-3,3.1-6.9,1.2-10.4,2c-6.1,0.7-12.2,0.2-18.4,0.3c-0.8,0-1.7,0-1.3-1.3
			C41.5,51,51.1,49.6,60.7,48.2z"/>
		<path class="st35" d="M31.8,52.4c4.5,2.1,9.2,0.6,13.8,0.9c1.9,0.1,3.9,0.1,5.9,0.1c-7.3,1.9-14.7,0.4-22.3,0.9
			C29.9,52.7,30.9,52.6,31.8,52.4z"/>
		<path class="st36" d="M82.6,49.4c-1.4-1-1.8-2.4-2.1-4c0-0.4,0.1-0.8,0.1-1.2c0.3,0.1,0.7,0.2,1,0.3c0,1.6,1,2.7,2,3.8
			c0.3,0.2,0.4,0.5,0.3,0.7c-0.1,0.2-0.2,0.3-0.4,0.3C83.2,49.3,82.9,49.3,82.6,49.4z"/>
		<path class="st37" d="M83.5,49.3c0-0.3,0-0.7,0.1-1c1.4,0.1,2.9-0.5,4.3,0.6C86.5,49.7,85,49.3,83.5,49.3z"/>
		<path class="st38" d="M68.6,124.5c-0.2,1.7-1.1,2.7-2.8,3c-1.6,0.3-4.1,2.1-4.7,0c-0.7-2.5,2.2-1.9,3.9-2.1
			c1.3-0.1,2.1-0.9,2.7-1.9C68.6,123.3,69.1,123.4,68.6,124.5z"/>
		<path class="st39" d="M68.6,124.5c-0.3-0.4-0.6-0.7-0.9-1.1c0.6-1.1,1.2-2.2,1.7-3.2c0.6,0.1,0.7,0.8,1,1.1
			C69.9,122.4,69.2,123.5,68.6,124.5z"/>
		<path class="st40" d="M70.5,121.4c-0.3-0.4-0.7-0.8-1-1.1c-0.3-0.9-0.7-1.9-1-2.8c0.4,0,0.8,0,1.3-0.1
			C71,118.5,70.5,120,70.5,121.4z"/>
		<path class="st41" d="M48.6,34.2c-0.8,0.1-1.6,0.2-2.1,1c-1.7-0.8-3-2.4-5.1-2c-0.3-0.3-1-0.3-1-0.9C43.9,30,46.1,32.8,48.6,34.2z
			"/>
		<path class="st38" d="M40.4,32.2c0.3,0.3,0.7,0.6,1,1c-1.6,0-3.2,0-5.4,0C37.7,31.7,39.1,32.4,40.4,32.2z"/>
		<path class="st42" d="M107.6,95.2c-0.3-0.6-0.6-1.1-0.9-1.7c2.3-1.5,4.7-1.4,7-0.2c-0.7,3.2-3.8,0.4-5.1,2
			C108.3,95.3,107.9,95.3,107.6,95.2z"/>
		<path class="st20" d="M108.6,95.3c1.2-1.9,4,0.1,5.1-2c0.9,0.6,2.3,1.4,0.1,1.9C112.2,95.7,110.3,95.4,108.6,95.3z"/>
		<path class="st43" d="M86.4,26.2c-0.2-1.8-2.4-1.6-3.3-3.9c4.4,0.1,7.6,3.6,11.6,3C92.1,27.7,89,25,86.4,26.2z"/>
		<path class="st44" d="M88.5,39.1c-1.2-1.7-3.7,0-4.9-1.7c3.3,0,6.6-0.1,10-0.1c0.2,0.2,0.3,0.4,0.2,0.6c-0.1,0.2-0.2,0.3-0.3,0.3
			C91.9,38.5,90.2,38.8,88.5,39.1z"/>
		<path class="st39" d="M98.6,37.3c0.8,1.1,1.7,2.3,2.6,3.5c-2.7,0.9-3.5-1.1-4.7-2.5c-0.2-1,0.1-1.5,1.1-1.2
			C98,37.2,98.3,37.3,98.6,37.3z"/>
		<path class="st45" d="M97.7,37.2c-0.4,0.4-0.8,0.8-1.1,1.2c-1-0.1-2-0.1-3-0.2c0-0.3,0-0.6,0.1-0.9C94.9,35.8,96.3,35.9,97.7,37.2
			z"/>
		<path class="st46" d="M85.5,12.2c1,0,2,0,3,0c1.5,2,1.2,3.7-0.9,5c-1.4-0.1-2.9,0-4.3-0.4c-1.2-0.3-1.6-1.5-1.5-2.7
			c0.1-1.9,1.5-1.8,2.8-1.9C84.9,12.9,85.2,12.9,85.5,12.2z"/>
		<path class="st47" d="M87.6,17.2c1.1-1.5,1.2-3.2,0.9-5C91.7,14.5,91.5,16.2,87.6,17.2z"/>
		<path class="st48" d="M85.5,12.2c0,0.8,1.5,1.7-0.1,2.3c-0.6,0.3-1.3,0.3-1.7-0.4c-0.6-1,0.9-1.2,0.9-2
			C84.9,12.2,85.2,12.2,85.5,12.2z"/>
	</g>
</g>
</svg>
