<?xml version="1.0" encoding="utf-8"?>
<!-- Generator: Adobe Illustrator 22.1.0, SVG Export Plug-In . SVG Version: 6.00 Build 0)  -->
<svg version="1.1" id="Layer_1" xmlns="http://www.w3.org/2000/svg" xmlns:xlink="http://www.w3.org/1999/xlink" x="0px" y="0px"
	 viewBox="0 0 500 500" style="enable-background:new 0 0 500 500;" xml:space="preserve">
<style type="text/css">
	.st0{fill:#F4BE00;}
</style>
<g id="aQvyRp.tif">
	<g>
		<path class="st0" d="M248.7,448.3c-3.6-8.9-7.3-17.7-10.9-26.6c-12.2-29.2-24.4-58.4-36.5-87.7c-0.9-2.3-1.7-2.7-4.1-1.7
			c-22.6,9.4-45.2,18.7-67.9,28c-0.9,0.4-1.7,0.7-3.2,1.2c1.5-3.7,2.7-6.8,4-10c8.5-20.6,16.9-41.2,25.5-61.7
			c0.9-2.3,0.3-2.8-1.6-3.7c-37.5-15.6-75.1-31.3-112.6-47c-0.8-0.3-1.6-0.7-2.7-1.2c8.1-3.4,16-6.8,23.8-10
			c30.5-12.7,61.1-25.5,91.7-38.1c2-0.8,1.9-1.7,1.2-3.5c-9.5-23-19-46.1-28.5-69.2c-0.2-0.5-0.3-1-0.7-2.1
			c6.8,2.8,13.1,5.3,19.3,7.9c17.3,7.1,34.6,14.2,51.9,21.4c2.1,0.9,2.7,0.5,3.5-1.5c15.5-37.3,31.1-74.5,46.6-111.8
			c0.4-1,0.8-1.9,1.5-3.4c2.3,5.5,4.5,10.5,6.6,15.6c13.9,33.3,27.8,66.6,41.6,99.9c0.8,1.9,1.5,2.4,3.5,1.5
			c23.1-9.6,46.3-19.1,69.4-28.6c0.6-0.2,1.2-0.4,2.4-0.8c-1.5,3.7-2.8,6.9-4.1,10.2c-8.4,20.3-16.7,40.6-25.2,60.9
			c-1,2.5-0.4,3.2,1.8,4.1c37.9,15.7,75.8,31.6,113.7,47.4c0,0.2,0,0.4,0,0.6c-38.1,15.9-76.1,31.8-114.2,47.6
			c-2,0.8-2.5,1.5-1.6,3.7c8.6,20.5,17,41.1,25.5,61.7c1.3,3.2,2.6,6.5,4.1,10.2c-1.5-0.6-2.4-0.9-3.3-1.3
			c-22.8-9.4-45.6-18.7-68.4-28.2c-2.4-1-3.2-0.6-4.1,1.7c-12.9,31.1-25.9,62.2-38.8,93.3c-2.9,7.1-6.2,14-8.7,21.3
			C249,448.3,248.8,448.3,248.7,448.3z"/>
	</g>
</g>
</svg>
