<?xml version="1.0" encoding="utf-8"?>
<!-- Generator: Adobe Illustrator 22.1.0, SVG Export Plug-In . SVG Version: 6.00 Build 0)  -->
<svg version="1.1" id="Layer_1" xmlns="http://www.w3.org/2000/svg" xmlns:xlink="http://www.w3.org/1999/xlink" x="0px" y="0px"
	 viewBox="0 0 1000 1000" style="enable-background:new 0 0 1000 1000;" xml:space="preserve">
<style type="text/css">
	.st0{fill:none;stroke:#000000;stroke-width:2;stroke-miterlimit:10;}
</style>
<path class="st0" d="M191.1,63.9c0,276.9,0,553.8,0,830.7"/>
<path class="st0" d="M660.2,30c0,259.9,0,519.9,0,779.8"/>
<path class="st0" d="M714.8,45.1c0,239.2,0,480.3,0,719.6"/>
<path class="st0" d="M292.9,165.6c0,81,0,162,0,243"/>
<path class="st0" d="M547.2,141.2c0,82.9,0,165.8,0,248.6"/>
<path class="st0" d="M219.4,158.1c0,84.8,0,171.4,0,256.2"/>
<path class="st0" d="M622.5,124.2c0,86.6,0,171.4,0,258.1"/>
<path class="st0" d="M260.8,576.3c0,11.3,0,22.6,0,33.9"/>
<path class="st0" d="M262.7,664.8c0,13.2,0,26.4,0,37.7"/>
<path class="st0" d="M300.4,578.2c0,11.3,0,24.5,0,35.8"/>
<path class="st0" d="M298.5,664.8c0,11.3,0,24.5,0,35.8"/>
<path class="st0" d="M260.8,704.4c11.3,0,22.6,0,33.9,0"/>
<path class="st0" d="M260.8,574.4c13.2,0,24.5,0,37.7,0"/>
<path class="st0" d="M226.9,615.8c0,13.2,0,26.4,0,37.7"/>
<path class="st0" d="M328.7,615.8c0,13.2,0,26.4,0,39.6"/>
<path class="st0" d="M302.3,617.2c8.3,0,16.6,0,25.8,0"/>
<path class="st0" d="M300.6,664.5c9.1,0,18.3,0,27.4,0"/>
<path class="st0" d="M328,664.5c0-1.7,0-3.3,0-5"/>
<path class="st0" d="M225.8,662.9c11.6,0,24.1,0,35.7,0"/>
<path class="st0" d="M226.7,615.5c10.8,0,22.4,0,33.2,0"/>
<path class="st0" d="M219.9,425.6c0,5.9-0.8,14.2,0.8,19.2c6.7,15.1,24.3,7.5,37.7,10"/>
<path class="st0" d="M274.3,454.9c86.2,0,172.4,0,258.5,0"/>
<path class="st0" d="M552.9,452.4c31,0,59.4-27.6,68.6-51.9"/>
<path class="st0" d="M294.4,410.6c-4.2,3.3,14.2,1.7,17.6,0.8c18.4-0.8,36.8-3.3,56.1-5c48.5-4.2,96.2-4.2,144.7-6.7
	c10.9-0.8,24.3-1.7,32.6-1.7"/>
<path class="st0" d="M295.2,160.4c49.4,0,97.9-1.7,146.4-5c20.1-1.7,40.2-4.2,59.4-4.2c11.7,0,31-5,38.5-3.3"/>
<path class="st0" d="M219.9,146.2c-9.2-37.7,72-28.4,95.4-29.3c36-0.8,71.1-5,106.3-7.5c36-1.7,71.1-2.5,106.3-5.9
	c15.9-1.7,91.2-14.2,93.7,8.4"/>
<path class="st0" d="M209,90.1C261.7,76.7,324.5,76.7,379.7,75c56.1-1.7,110.4-4.2,166.5-10c19.2-2.5,38.5-1.7,57.7-3.3
	c7.5-0.8,34.3-5.9,36.8-2.5"/>
<path class="st0" d="M197.3,55c24.3,1.7,51.9-4.2,76.1-6.7c38.5-4.2,77-8.4,115.5-9.2c61.1-2.5,121.3-3.3,182.4-6.7
	c46.9-3.3,103.8-11.7,144.7,16.7"/>
<path class="st0" d="M191.5,905.9c6.7,22.6,49.4,15.9,64.4,13.4"/>
<path class="st0" d="M275.1,920.1c113,0,225.9,0,338,0"/>
<path class="st0" d="M660.8,823c-0.8,15.9,2.5,31-1.7,46c-5,20.9-18.4,29.3-31.8,43.5"/>
<path class="st0" d="M715.2,782.9c0,28.4,4.2,61.9-7.5,87.9c-14.2,32.6-52.7,30.1-75.3,48.5"/>
<path class="st0" d="M595.6,573.7c-0.8-9.2-19.2,13.4-20.9,16.7c-10.9,20.1-2.5,40.2,20.9,44.3c18.4,3.3,38.5-4.2,40.2-25.9
	c1.7-13.4-7.5-23.4-18.4-30.1c-10.9-6.7-17.6-1.7-27.6-4.2"/>
<path class="st0" d="M528.6,618.1c-22.6,6.7-60.2,43.5-21.8,58.6c17.6,6.7,35.1-7.5,41-24.3c4.2-14.2-10.9-41.8-26.8-36.8"/>
<path class="st0" d="M491,835.6c10,23.4,26.8,66.1,46.9,79.5"/>
<path class="st0" d="M511.9,821.4c5,12.6,17.6,43.5,24.3,48.5"/>
<path class="st0" d="M534.5,804.6c7.5,12.6,20.9,53.5,29.3,56.9"/>
<path class="st0" d="M559.6,787.9c3.3,8.4,26.8,57.7,26.8,57.7"/>
<path class="st0" d="M588,773.7c4.2,6.7,33.5,59.4,30.1,60.2"/>
<path class="st0" d="M605.6,757.8c15.1,14.2,20.9,45.2,32.6,59.4"/>
<path class="st0" d="M504.8,278.9c27.5,25.6,34.3,82.4,38.7,117.4"/>
<path class="st0" d="M508.6,277.6c13.7-7.5,30-27.5,33.7-42.5"/>
<path class="st0" d="M468.6,257c12.5-14.4,21.9-24.4,39.3-31.8c10-4.4,25.6-11.2,35.6-10.6"/>
<path class="st0" d="M306.2,200.8c36.2,6.2,79.3,32.5,95.5,68.1"/>
<path class="st0" d="M325.6,243.9c-4.4-11.9,1.2-26.8,12.5-30"/>
<path class="st0" d="M306.2,202.7c-1.2,13.1,11.2,32.5,18.7,43.1c8.7,13.1,23.7,28.1,39.3,33.1"/>
<path class="st0" d="M371.8,274.5c-15,10-19.4,40-21.2,56.8c-2.5,24.4,20,46.2,7.5,68.7"/>
<path class="st0" d="M357.5,330.1c-10.6,11.2,7.5,29.3,18.7,19.4c18.7-15.6-19.4-33.1-20.6-17.5"/>
<path class="st0" d="M393,293.9c-15,4.4-10.6,30.6,4.4,25.6c13.1-5,6.9-24.4-5-25"/>
<path class="st0" d="M471.6,293.9c-15,4.4-10.6,30.6,4.4,25.6c13.1-5,6.9-24.4-5-25"/>
<path class="st0" d="M418,320.7c3.7,0,8.1,0,11.9-0.6"/>
<path class="st0" d="M397.4,257c13.1-3.7,23.7-9.4,38.1-8.7c8.7,0,28.7,0.6,35,6.9"/>
<path class="st0" d="M494.2,337c-9.4-1.2-16.9,11.2-7.5,16.2c11.9,6.9,26.8-15.6,3.7-16.9"/>
<path class="st0" d="M437.4,342.6c-13.1,0-36.2,8.7-18.1,23.1c19.4,15,38.1-16.2,18.7-22.5"/>
</svg>
